<?xml version="1.0" encoding="utf-8"?>
<!-- Generator: Adobe Illustrator 23.1.0, SVG Export Plug-In . SVG Version: 6.00 Build 0)  -->
<svg version="1.1" id="Слой_1" xmlns="http://www.w3.org/2000/svg" xmlns:xlink="http://www.w3.org/1999/xlink" x="0px" y="0px"
	 viewBox="0 0 201.6 150" style="enable-background:new 0 0 201.6 150;" xml:space="preserve">
<style type="text/css">
	.st0{fill:#3C3C3B;stroke:#000000;stroke-miterlimit:10;}
	.st1{stroke:#000000;stroke-miterlimit:10;}
</style>
<g>
	<g>
		<g>
			<rect x="38.2" class="st0" width="56.5" height="94.3"/>
			<rect x="79" y="8.8" class="st1" width="6.6" height="11.2"/>
			<rect x="79" y="25.1" class="st1" width="6.6" height="11.2"/>
			<rect x="79" y="41.5" class="st1" width="6.6" height="11.2"/>
			<rect x="79" y="57.2" class="st1" width="6.6" height="11.2"/>
			<rect x="68.3" y="8.8" class="st1" width="6.6" height="11.2"/>
			<rect x="68.3" y="25.1" class="st1" width="6.6" height="11.2"/>
			<rect x="68.3" y="41.5" class="st1" width="6.6" height="11.2"/>
			<rect x="68.3" y="57.2" class="st1" width="6.6" height="11.2"/>
			<rect x="58" y="8.8" class="st1" width="6.6" height="11.2"/>
			<rect x="57.7" y="25.1" class="st1" width="6.6" height="11.2"/>
			<rect x="57.7" y="41.8" class="st1" width="6.6" height="11.2"/>
			<rect x="57.7" y="57.2" class="st1" width="6.6" height="11.2"/>
			<rect x="47.2" y="8.8" class="st1" width="6.6" height="11.2"/>
			<rect x="47.2" y="25.2" class="st1" width="6.6" height="11.2"/>
			<rect x="47.2" y="41.8" class="st1" width="6.6" height="11.2"/>
			<rect x="47.2" y="57.2" class="st1" width="6.6" height="11.2"/>
		</g>
		<rect x="44.4" y="32" class="st0" width="71.2" height="118"/>
		<rect x="101.6" y="40.4" class="st1" width="6.6" height="11.2"/>
		<rect x="101.6" y="57.8" class="st1" width="6.6" height="11.2"/>
		<rect x="101.6" y="75.1" class="st1" width="6.6" height="11.2"/>
		<rect x="101.6" y="92.5" class="st1" width="6.6" height="11.2"/>
		<rect x="101.6" y="109.8" class="st1" width="6.6" height="11.2"/>
		<rect x="88.1" y="40.4" class="st1" width="6.6" height="11.2"/>
		<rect x="88.1" y="57.8" class="st1" width="6.6" height="11.2"/>
		<rect x="88.1" y="75.1" class="st1" width="6.6" height="11.2"/>
		<rect x="88.1" y="92.5" class="st1" width="6.6" height="11.2"/>
		<rect x="88.1" y="109.8" class="st1" width="6.6" height="11.2"/>
		<rect x="74.3" y="40.4" class="st1" width="6.6" height="11.2"/>
		<rect x="74.3" y="57.8" class="st1" width="6.6" height="11.2"/>
		<rect x="74.3" y="75.1" class="st1" width="6.6" height="11.2"/>
		<rect x="74.3" y="92.5" class="st1" width="6.6" height="11.2"/>
		<rect x="74.3" y="109.8" class="st1" width="6.6" height="11.2"/>
		<rect x="61.5" y="40.4" class="st1" width="6.6" height="11.2"/>
		<rect x="61.5" y="57.8" class="st1" width="6.6" height="11.2"/>
		<rect x="61.5" y="75.1" class="st1" width="6.6" height="11.2"/>
		<rect x="61.5" y="92.5" class="st1" width="6.6" height="11.2"/>
		<rect x="61.5" y="109.8" class="st1" width="6.6" height="11.2"/>
		<rect x="49.1" y="40.4" class="st1" width="6.6" height="11.2"/>
		<rect x="49.1" y="57.8" class="st1" width="6.6" height="11.2"/>
		<rect x="49.1" y="75.1" class="st1" width="6.6" height="11.2"/>
		<rect x="49.1" y="92.5" class="st1" width="6.6" height="11.2"/>
		<rect x="49.1" y="109.8" class="st1" width="6.6" height="11.2"/>
		<rect y="55.6" class="st0" width="58.3" height="94.3"/>
		<rect x="42.5" y="63.4" class="st1" width="6.6" height="11.2"/>
		<rect x="42.5" y="79.7" class="st1" width="6.6" height="11.2"/>
		<rect x="42.5" y="96" class="st1" width="6.6" height="11.2"/>
		<rect x="42.5" y="111.8" class="st1" width="6.6" height="11.2"/>
		<rect x="31.8" y="63.4" class="st1" width="6.6" height="11.2"/>
		<rect x="31.8" y="79.7" class="st1" width="6.6" height="11.2"/>
		<rect x="31.8" y="96" class="st1" width="6.6" height="11.2"/>
		<rect x="31.8" y="111.8" class="st1" width="6.6" height="11.2"/>
		<rect x="21.5" y="63.4" class="st1" width="6.6" height="11.2"/>
		<rect x="21.3" y="79.7" class="st1" width="6.6" height="11.2"/>
		<rect x="21.3" y="96.4" class="st1" width="6.6" height="11.2"/>
		<rect x="21.3" y="111.8" class="st1" width="6.6" height="11.2"/>
		<rect x="10.7" y="63.4" class="st1" width="6.6" height="11.2"/>
		<rect x="10.7" y="79.7" class="st1" width="6.6" height="11.2"/>
		<rect x="10.7" y="96.4" class="st1" width="6.6" height="11.2"/>
		<rect x="10.7" y="111.8" class="st1" width="6.6" height="11.2"/>
		<rect x="130.4" y="32" class="st0" width="71.2" height="118"/>
		<rect x="187.6" y="40.4" class="st1" width="6.6" height="11.2"/>
		<rect x="187.6" y="57.8" class="st1" width="6.6" height="11.2"/>
		<rect x="187.6" y="75.2" class="st1" width="6.6" height="11.2"/>
		<rect x="187.6" y="92.5" class="st1" width="6.6" height="11.2"/>
		<rect x="187.6" y="109.9" class="st1" width="6.6" height="11.2"/>
		<rect x="174.1" y="40.4" class="st1" width="6.6" height="11.2"/>
		<rect x="174.1" y="57.8" class="st1" width="6.6" height="11.2"/>
		<rect x="174.1" y="75.2" class="st1" width="6.6" height="11.2"/>
		<rect x="174.1" y="92.5" class="st1" width="6.6" height="11.2"/>
		<rect x="174.1" y="109.9" class="st1" width="6.6" height="11.2"/>
		<rect x="160.3" y="40.4" class="st1" width="6.6" height="11.2"/>
		<rect x="160.3" y="57.8" class="st1" width="6.6" height="11.2"/>
		<rect x="160.3" y="75.2" class="st1" width="6.6" height="11.2"/>
		<rect x="160.3" y="92.5" class="st1" width="6.6" height="11.2"/>
		<rect x="160.3" y="109.9" class="st1" width="6.6" height="11.2"/>
		<rect x="147.5" y="40.4" class="st1" width="6.6" height="11.2"/>
		<rect x="147.5" y="57.8" class="st1" width="6.6" height="11.2"/>
		<rect x="147.5" y="75.2" class="st1" width="6.6" height="11.2"/>
		<rect x="147.5" y="92.5" class="st1" width="6.6" height="11.2"/>
		<rect x="147.5" y="109.9" class="st1" width="6.6" height="11.2"/>
		<rect x="135.2" y="40.4" class="st1" width="6.6" height="11.2"/>
		<rect x="135.2" y="57.8" class="st1" width="6.6" height="11.2"/>
		<rect x="135.2" y="75.2" class="st1" width="6.6" height="11.2"/>
		<rect x="135.2" y="92.5" class="st1" width="6.6" height="11.2"/>
		<rect x="135.2" y="109.9" class="st1" width="6.6" height="11.2"/>
		<rect x="86" y="55.7" class="st0" width="58.3" height="94.3"/>
		<rect x="128.5" y="63.4" class="st1" width="6.6" height="11.2"/>
		<rect x="128.5" y="79.7" class="st1" width="6.6" height="11.2"/>
		<rect x="128.5" y="96.1" class="st1" width="6.6" height="11.2"/>
		<rect x="128.5" y="111.8" class="st1" width="6.6" height="11.2"/>
		<rect x="117.8" y="63.4" class="st1" width="6.6" height="11.2"/>
		<rect x="117.8" y="79.7" class="st1" width="6.6" height="11.2"/>
		<rect x="117.8" y="96.1" class="st1" width="6.6" height="11.2"/>
		<rect x="117.8" y="111.8" class="st1" width="6.6" height="11.2"/>
		<rect x="107.5" y="63.4" class="st1" width="6.6" height="11.2"/>
		<rect x="107.3" y="79.7" class="st1" width="6.6" height="11.2"/>
		<rect x="107.3" y="96.4" class="st1" width="6.6" height="11.2"/>
		<rect x="107.3" y="111.8" class="st1" width="6.6" height="11.2"/>
		<rect x="96.7" y="63.4" class="st1" width="6.6" height="11.2"/>
		<rect x="96.7" y="79.8" class="st1" width="6.6" height="11.2"/>
		<rect x="96.7" y="96.4" class="st1" width="6.6" height="11.2"/>
		<rect x="96.7" y="111.8" class="st1" width="6.6" height="11.2"/>
	</g>
</g>
</svg>
