<?xml version="1.0" encoding="utf-8"?>
<!-- Generator: Adobe Illustrator 23.1.0, SVG Export Plug-In . SVG Version: 6.00 Build 0)  -->
<svg version="1.1" id="Слой_1" xmlns="http://www.w3.org/2000/svg" xmlns:xlink="http://www.w3.org/1999/xlink" x="0px" y="0px"
	 viewBox="0 0 201.7 149.4" style="enable-background:new 0 0 201.7 149.4;" xml:space="preserve">
<style type="text/css">
	.st0{fill:#3C3C3B;stroke:#000000;stroke-miterlimit:10;}
	.st1{stroke:#000000;stroke-miterlimit:10;}
</style>
<g>
	<g>
		<g>
			<rect x="106.9" y="-0.6" class="st0" width="56.5" height="94.3"/>
			<rect x="116.1" y="8.3" class="st1" width="6.6" height="11.2"/>
			<rect x="116.1" y="24.6" class="st1" width="6.6" height="11.2"/>
			<rect x="116.1" y="41" class="st1" width="6.6" height="11.2"/>
			<rect x="116.1" y="56.7" class="st1" width="6.6" height="11.2"/>
			<rect x="126.7" y="8.3" class="st1" width="6.6" height="11.2"/>
			<rect x="126.7" y="24.6" class="st1" width="6.6" height="11.2"/>
			<rect x="126.7" y="41" class="st1" width="6.6" height="11.2"/>
			<rect x="126.7" y="56.7" class="st1" width="6.6" height="11.2"/>
			<rect x="137.1" y="8.3" class="st1" width="6.6" height="11.2"/>
			<rect x="137.3" y="24.6" class="st1" width="6.6" height="11.2"/>
			<rect x="137.3" y="41.3" class="st1" width="6.6" height="11.2"/>
			<rect x="137.3" y="56.7" class="st1" width="6.6" height="11.2"/>
			<rect x="147.9" y="8.3" class="st1" width="6.6" height="11.2"/>
			<rect x="147.9" y="24.7" class="st1" width="6.6" height="11.2"/>
			<rect x="147.9" y="41.3" class="st1" width="6.6" height="11.2"/>
			<rect x="147.9" y="56.7" class="st1" width="6.6" height="11.2"/>
		</g>
		<rect x="86" y="31.4" class="st0" width="71.2" height="118"/>
		<rect x="93.4" y="39.9" class="st1" width="6.6" height="11.2"/>
		<rect x="93.4" y="57.2" class="st1" width="6.6" height="11.2"/>
		<rect x="93.4" y="74.6" class="st1" width="6.6" height="11.2"/>
		<rect x="93.4" y="91.9" class="st1" width="6.6" height="11.2"/>
		<rect x="93.4" y="109.3" class="st1" width="6.6" height="11.2"/>
		<rect x="107" y="39.9" class="st1" width="6.6" height="11.2"/>
		<rect x="107" y="57.2" class="st1" width="6.6" height="11.2"/>
		<rect x="107" y="74.6" class="st1" width="6.6" height="11.2"/>
		<rect x="107" y="91.9" class="st1" width="6.6" height="11.2"/>
		<rect x="107" y="109.3" class="st1" width="6.6" height="11.2"/>
		<rect x="120.8" y="39.9" class="st1" width="6.6" height="11.2"/>
		<rect x="120.8" y="57.2" class="st1" width="6.6" height="11.2"/>
		<rect x="120.8" y="74.6" class="st1" width="6.6" height="11.2"/>
		<rect x="120.8" y="91.9" class="st1" width="6.6" height="11.2"/>
		<rect x="120.8" y="109.3" class="st1" width="6.6" height="11.2"/>
		<rect x="133.5" y="39.9" class="st1" width="6.6" height="11.2"/>
		<rect x="133.5" y="57.2" class="st1" width="6.6" height="11.2"/>
		<rect x="133.5" y="74.6" class="st1" width="6.6" height="11.2"/>
		<rect x="133.5" y="91.9" class="st1" width="6.6" height="11.2"/>
		<rect x="133.5" y="109.3" class="st1" width="6.6" height="11.2"/>
		<rect x="145.9" y="39.9" class="st1" width="6.6" height="11.2"/>
		<rect x="145.9" y="57.2" class="st1" width="6.6" height="11.2"/>
		<rect x="145.9" y="74.6" class="st1" width="6.6" height="11.2"/>
		<rect x="145.9" y="91.9" class="st1" width="6.6" height="11.2"/>
		<rect x="145.9" y="109.3" class="st1" width="6.6" height="11.2"/>
		<rect x="143.4" y="55.1" class="st0" width="58.3" height="94.3"/>
		<rect x="152.6" y="62.9" class="st1" width="6.6" height="11.2"/>
		<rect x="152.6" y="79.2" class="st1" width="6.6" height="11.2"/>
		<rect x="152.6" y="95.5" class="st1" width="6.6" height="11.2"/>
		<rect x="152.6" y="111.3" class="st1" width="6.6" height="11.2"/>
		<rect x="163.2" y="62.9" class="st1" width="6.6" height="11.2"/>
		<rect x="163.2" y="79.2" class="st1" width="6.6" height="11.2"/>
		<rect x="163.2" y="95.5" class="st1" width="6.6" height="11.2"/>
		<rect x="163.2" y="111.3" class="st1" width="6.6" height="11.2"/>
		<rect x="173.6" y="62.9" class="st1" width="6.6" height="11.2"/>
		<rect x="173.8" y="79.2" class="st1" width="6.6" height="11.2"/>
		<rect x="173.8" y="95.8" class="st1" width="6.6" height="11.2"/>
		<rect x="173.8" y="111.3" class="st1" width="6.6" height="11.2"/>
		<rect x="184.3" y="62.9" class="st1" width="6.6" height="11.2"/>
		<rect x="184.3" y="79.2" class="st1" width="6.6" height="11.2"/>
		<rect x="184.3" y="95.8" class="st1" width="6.6" height="11.2"/>
		<rect x="184.3" y="111.3" class="st1" width="6.6" height="11.2"/>
		<rect y="31.5" class="st0" width="71.2" height="118"/>
		<rect x="7.4" y="39.9" class="st1" width="6.6" height="11.2"/>
		<rect x="7.4" y="57.3" class="st1" width="6.6" height="11.2"/>
		<rect x="7.4" y="74.6" class="st1" width="6.6" height="11.2"/>
		<rect x="7.4" y="92" class="st1" width="6.6" height="11.2"/>
		<rect x="7.4" y="109.3" class="st1" width="6.6" height="11.2"/>
		<rect x="20.9" y="39.9" class="st1" width="6.6" height="11.2"/>
		<rect x="20.9" y="57.3" class="st1" width="6.6" height="11.2"/>
		<rect x="20.9" y="74.6" class="st1" width="6.6" height="11.2"/>
		<rect x="20.9" y="92" class="st1" width="6.6" height="11.2"/>
		<rect x="20.9" y="109.3" class="st1" width="6.6" height="11.2"/>
		<rect x="34.7" y="39.9" class="st1" width="6.6" height="11.2"/>
		<rect x="34.7" y="57.3" class="st1" width="6.6" height="11.2"/>
		<rect x="34.7" y="74.6" class="st1" width="6.6" height="11.2"/>
		<rect x="34.7" y="92" class="st1" width="6.6" height="11.2"/>
		<rect x="34.7" y="109.3" class="st1" width="6.6" height="11.2"/>
		<rect x="47.5" y="39.9" class="st1" width="6.6" height="11.2"/>
		<rect x="47.5" y="57.3" class="st1" width="6.6" height="11.2"/>
		<rect x="47.5" y="74.6" class="st1" width="6.6" height="11.2"/>
		<rect x="47.5" y="92" class="st1" width="6.6" height="11.2"/>
		<rect x="47.5" y="109.3" class="st1" width="6.6" height="11.2"/>
		<rect x="59.9" y="39.9" class="st1" width="6.6" height="11.2"/>
		<rect x="59.9" y="57.3" class="st1" width="6.6" height="11.2"/>
		<rect x="59.9" y="74.6" class="st1" width="6.6" height="11.2"/>
		<rect x="59.9" y="92" class="st1" width="6.6" height="11.2"/>
		<rect x="59.9" y="109.3" class="st1" width="6.6" height="11.2"/>
		<rect x="57.3" y="55.2" class="st0" width="58.3" height="94.3"/>
		<rect x="66.5" y="62.9" class="st1" width="6.6" height="11.2"/>
		<rect x="66.5" y="79.2" class="st1" width="6.6" height="11.2"/>
		<rect x="66.5" y="95.6" class="st1" width="6.6" height="11.2"/>
		<rect x="66.5" y="111.3" class="st1" width="6.6" height="11.2"/>
		<rect x="77.2" y="62.9" class="st1" width="6.6" height="11.2"/>
		<rect x="77.2" y="79.2" class="st1" width="6.6" height="11.2"/>
		<rect x="77.2" y="95.6" class="st1" width="6.6" height="11.2"/>
		<rect x="77.2" y="111.3" class="st1" width="6.6" height="11.2"/>
		<rect x="87.5" y="62.9" class="st1" width="6.6" height="11.2"/>
		<rect x="87.7" y="79.2" class="st1" width="6.6" height="11.2"/>
		<rect x="87.7" y="95.9" class="st1" width="6.6" height="11.2"/>
		<rect x="87.7" y="111.3" class="st1" width="6.6" height="11.2"/>
		<rect x="98.3" y="62.9" class="st1" width="6.6" height="11.2"/>
		<rect x="98.3" y="79.3" class="st1" width="6.6" height="11.2"/>
		<rect x="98.3" y="95.9" class="st1" width="6.6" height="11.2"/>
		<rect x="98.3" y="111.3" class="st1" width="6.6" height="11.2"/>
	</g>
</g>
</svg>
