<?xml version="1.0" encoding="utf-8"?>
<!-- Generator: Adobe Illustrator 23.1.0, SVG Export Plug-In . SVG Version: 6.00 Build 0)  -->
<svg version="1.1" id="Слой_1" xmlns="http://www.w3.org/2000/svg" xmlns:xlink="http://www.w3.org/1999/xlink" x="0px" y="0px"
	 viewBox="0 0 65.2 65.2" style="enable-background:new 0 0 65.2 65.2;" xml:space="preserve">
<style type="text/css">
	.st0{fill:#FFFFFF;stroke:#FFFFFF;stroke-miterlimit:10;}
</style>
<path class="st0" d="M32.6,0.5L32.6,0.5C14.9,0.5,0.5,14.9,0.5,32.6l0,0c0,17.7,14.4,32.1,32.1,32.1l0,0c17.7,0,32.1-14.4,32.1-32.1
	l0,0C64.7,14.8,50.3,0.5,32.6,0.5z M37.5,49.4c0,2.8-2.3,5-5.1,5s-5-2.3-5-5.1l0.3-21.4c0-2.8,2.3-5,5.1-5l0,0c2.8,0,5,2.3,5,5.1
	L37.5,49.4z M38.1,13c0.1,2.9-2.1,5.3-5,5.5s-5.3-2.1-5.5-5s2.1-5.3,5-5.5l0,0C35.6,7.9,38,10.2,38.1,13L38.1,13z"/>
</svg>
